<svg width="108" height="40" viewBox="0 0 108 40" fill="none" xmlns="http://www.w3.org/2000/svg">
<path fill-rule="evenodd" clip-rule="evenodd" d="M43.0288 13.3223C43.4112 13.3223 43.7884 13.3518 44.1579 13.4083C44.5274 13.4661 44.866 13.5495 45.1724 13.6573C45.4775 13.7652 45.7337 13.8884 45.9371 14.0284C46.2048 14.2068 46.3387 14.3981 46.3387 14.6009C46.3387 14.7409 46.2911 14.9257 46.1958 15.1542C46.0993 15.3828 45.9821 15.5869 45.8418 15.7653C45.7015 15.9438 45.5676 16.0324 45.4401 16.0324C45.3972 16.0324 45.348 16.0209 45.2914 15.9981L45.2007 15.9553C45.1372 15.9219 45.0576 15.8851 44.9625 15.8457L44.808 15.7846C44.6304 15.7076 44.4102 15.6344 44.1489 15.5651C43.8862 15.4957 43.5644 15.4598 43.182 15.4598C42.6967 15.4598 42.3053 15.5265 42.0053 15.6601C41.7054 15.7936 41.4917 15.9694 41.3642 16.1851C41.2368 16.4008 41.1737 16.6434 41.1737 16.9105C41.1737 17.2918 41.2754 17.6037 41.4788 17.8451C41.6835 18.0864 41.9539 18.2867 42.2924 18.4459C42.6297 18.6051 43.0031 18.7604 43.4112 18.9132C43.8064 19.0788 44.212 19.2598 44.6265 19.4575C45.041 19.6539 45.4234 19.8991 45.7749 20.1918C46.125 20.4846 46.4057 20.853 46.6168 21.2985C46.8267 21.744 46.9322 22.2909 46.9322 22.9392C46.9322 23.6388 46.8176 24.2435 46.5885 24.7519C46.358 25.2616 46.0388 25.6775 45.6307 26.001C45.2226 26.3258 44.763 26.5646 44.2544 26.7174C43.7433 26.8701 43.2078 26.9459 42.6465 26.9459C41.7286 26.9459 40.9407 26.8509 40.2841 26.6596C39.6262 26.4696 39.1319 26.2526 38.7997 26.0113C38.4817 25.7956 38.3221 25.5786 38.3221 25.363C38.3221 25.1974 38.3826 24.9997 38.5036 24.7711C38.6246 24.5426 38.7688 24.3411 38.9349 24.1703C39.0997 23.9983 39.2349 23.9123 39.3366 23.9123C39.3868 23.9123 39.4511 23.9315 39.5271 23.9701L39.706 24.0632C39.74 24.0816 39.776 24.1014 39.8142 24.1228L40.1589 24.2845L40.5793 24.4642C40.6558 24.4956 40.7355 24.5277 40.8184 24.5606C41.2329 24.7262 41.7286 24.8097 42.3014 24.8097C42.6593 24.8097 42.9941 24.7557 43.3069 24.6466C43.6185 24.5388 43.8708 24.3603 44.0626 24.1126C44.2544 23.8648 44.3484 23.5503 44.3484 23.1677C44.3484 22.7363 44.2055 22.3923 43.9184 22.1381C43.6326 21.8839 43.2644 21.6605 42.819 21.4705L41.9002 21.0718L41.4222 20.8594C41.0643 20.7067 40.7167 20.5321 40.3794 20.3344C40.0408 20.1379 39.7382 19.8966 39.4705 19.609C39.2027 19.324 38.989 18.9735 38.8293 18.5601C38.6697 18.1468 38.5899 17.6474 38.5899 17.062C38.5899 16.2236 38.7971 15.5265 39.2117 14.9732C39.6262 14.4199 40.1721 14.0065 40.848 13.7331C41.5239 13.4596 42.2512 13.3223 43.0288 13.3223ZM54.165 13.3223C54.5731 13.3223 54.9941 13.3518 55.4279 13.4083C55.8618 13.4661 56.2634 13.5495 56.6342 13.6573C57.0037 13.7652 57.3101 13.8884 57.5521 14.0284C57.8714 14.2196 58.031 14.4109 58.031 14.6009C58.031 14.7537 57.9731 14.954 57.8585 15.2017C57.7427 15.4508 57.6062 15.6703 57.4466 15.8603C57.2869 16.0516 57.1376 16.1466 56.9972 16.1466C56.9458 16.1466 56.844 16.1096 56.6907 16.0364L56.566 15.9746C56.3433 15.8603 56.0343 15.7461 55.6378 15.6318C55.2438 15.5176 54.7392 15.4598 54.1263 15.4598C52.8647 15.4598 51.93 15.8411 51.3237 16.6049C50.7173 17.3675 50.4148 18.5447 50.4148 20.1354C50.4148 21.699 50.7173 22.8698 51.3237 23.6453C51.93 24.422 52.8518 24.8097 54.089 24.8097C54.7134 24.8097 55.2438 24.7429 55.6764 24.6081C56.0235 24.5023 56.3195 24.3932 56.5644 24.2822L56.9797 24.0818C57.1186 24.0194 57.2135 23.988 57.265 23.988C57.4311 23.988 57.5907 24.0869 57.7427 24.2846C57.8959 24.4823 58.0169 24.6954 58.107 24.9239C58.1958 25.1524 58.2409 25.318 58.2409 25.4195C58.2409 25.5722 58.1842 25.716 58.0684 25.8495C57.9538 25.983 57.7942 26.1063 57.5907 26.2205C57.3101 26.3733 56.9715 26.5043 56.5763 26.6121C56.181 26.7199 55.7665 26.8034 55.3326 26.8599C54.8988 26.9176 54.4842 26.9459 54.089 26.9459C51.9584 26.9459 50.3826 26.3926 49.363 25.2859C48.3421 24.1793 47.8322 22.4552 47.8322 20.1148C47.8322 15.5869 49.9423 13.3223 54.165 13.3223ZM78.8088 13.3233C80.7605 13.3233 82.2564 13.9023 83.2954 15.059C84.3356 16.217 84.8544 17.909 84.8544 20.1351C84.8544 22.3355 84.3356 24.0212 83.2954 25.1907C82.2564 26.3615 80.7605 26.9456 78.8088 26.9456C76.8571 26.9456 75.3585 26.3615 74.3132 25.1907C73.2665 24.0212 72.7425 22.3355 72.7425 20.1351C72.7425 17.909 73.2665 16.217 74.3132 15.059C75.3585 13.9023 76.8571 13.3233 78.8088 13.3233ZM92.3175 13.3233C94.2692 13.3233 95.7651 13.9023 96.8041 15.059C97.8443 16.217 98.3631 17.909 98.3631 20.1351C98.3631 22.3355 97.8443 24.0212 96.8041 25.1907C95.7651 26.3615 94.2692 26.9456 92.3175 26.9456C90.3658 26.9456 88.8672 26.3615 87.8219 25.1907C86.7752 24.0212 86.2512 22.3355 86.2512 20.1351C86.2512 17.909 86.7752 16.217 87.8219 15.059C88.8672 13.9023 90.3658 13.3233 92.3175 13.3233ZM61.3778 13.4187C62.0536 13.4187 62.3922 13.6035 62.3922 13.972V18.9133H68.1701V13.972C68.1701 13.6035 68.5087 13.4187 69.1846 13.4187H69.6828C70.3587 13.4187 70.696 13.6035 70.696 13.972V26.2977C70.696 26.6662 70.3587 26.851 69.6828 26.851H69.1846C68.5087 26.851 68.1701 26.6662 68.1701 26.2977V21.0688H62.3922V26.2977C62.3922 26.6662 62.0536 26.851 61.3778 26.851H60.8808C60.2037 26.851 59.8664 26.6662 59.8664 26.2977V13.972C59.8664 13.6035 60.2037 13.4187 60.8808 13.4187H61.3778ZM101.903 13.4188C102.579 13.4188 102.917 13.6024 102.917 13.9721V24.6751H107.452C107.784 24.6751 107.949 24.9486 107.949 25.4955V25.9923C107.949 26.5392 107.784 26.8126 107.452 26.8126H101.119C100.646 26.8126 100.411 26.5777 100.411 26.1065V13.9721C100.411 13.6024 100.748 13.4188 101.424 13.4188H101.903ZM16.1068 13.3386C16.1629 13.3386 16.2109 13.3718 16.2314 13.4198L16.242 13.4721V26.6464C16.242 26.7022 16.208 26.7501 16.1595 26.7706L16.1068 26.7812H13.6801C13.6241 26.7812 13.5761 26.7472 13.5555 26.6989L13.5449 26.6464V13.4721C13.5449 13.4162 13.579 13.3691 13.6275 13.349L13.6801 13.3386H16.1068ZM27.5655 13.3381C27.6215 13.3381 27.6695 13.372 27.69 13.4204L27.7007 13.4729V15.8928C27.7007 15.9477 27.6666 15.9953 27.6181 16.0158L27.5655 16.0263H23.9929V26.66C23.9929 26.7101 23.9589 26.7529 23.9104 26.7712L23.8578 26.7807H21.4323C21.3763 26.7807 21.3283 26.7503 21.3078 26.707L21.2971 26.66V16.0263H17.7246C17.6686 16.0263 17.6206 15.9924 17.6 15.9445L17.5894 15.8928V13.4729C17.5894 13.417 17.6235 13.3691 17.672 13.3486L17.7246 13.3381H27.5655ZM78.8088 15.4595C77.6733 15.4595 76.8094 15.8575 76.216 16.6522C75.6225 17.4481 75.3264 18.6023 75.3264 20.1158C75.3264 21.6423 75.6225 22.8054 76.216 23.6065C76.8094 24.4089 77.6733 24.8094 78.8088 24.8094C79.9443 24.8094 80.8055 24.4089 81.3913 23.6065C81.9784 22.8054 82.2719 21.6423 82.2719 20.1158C82.2719 18.6023 81.9784 17.4481 81.3913 16.6522C80.8055 15.8575 79.9443 15.4595 78.8088 15.4595ZM92.3175 15.4595C91.182 15.4595 90.3181 15.8575 89.7246 16.6522C89.1311 17.4481 88.835 18.6023 88.835 20.1158C88.835 21.6423 89.1311 22.8054 89.7246 23.6065C90.3181 24.4089 91.182 24.8094 92.3175 24.8094C93.4529 24.8094 94.3142 24.4089 94.9 23.6065C95.487 22.8054 95.7806 21.6423 95.7806 20.1158C95.7806 18.6023 95.487 17.4481 94.9 16.6522C94.3142 15.8575 93.4529 15.4595 92.3175 15.4595Z" fill="#182036"/>
<path fill-rule="evenodd" clip-rule="evenodd" d="M36.5655 11.9359C36.1008 11.9359 35.6476 11.6958 35.3979 11.2644C32.6815 6.58373 27.864 3.37425 22.5097 2.67715C21.772 2.58086 21.2519 1.90687 21.3472 1.16997C21.4437 0.434359 22.1209 -0.0817259 22.8586 0.0107073C29.0381 0.815646 34.5984 4.51939 37.7306 9.91775C38.104 10.5609 37.8838 11.3826 37.2389 11.7549C37.0264 11.8768 36.7947 11.9359 36.5655 11.9359Z" fill="#087DB9"/>
<path fill-rule="evenodd" clip-rule="evenodd" d="M33.2291 17.8685C32.6343 17.8685 32.0884 17.4718 31.9275 16.871C31.652 15.8439 31.2465 14.8631 30.7199 13.9568C28.8416 10.719 25.5085 8.49935 21.8047 8.01664C20.5894 7.85874 19.853 7.85874 18.6377 8.01664C14.9338 8.49935 11.6007 10.719 9.72114 13.9568C9.19588 14.8631 8.78906 15.8439 8.51356 16.871C8.32174 17.5886 7.58277 18.0148 6.86311 17.8223C6.14474 17.631 5.71733 16.8941 5.90915 16.1764C6.24645 14.9209 6.74338 13.7205 7.38837 12.6101C9.68381 8.65469 13.7584 5.94075 18.2888 5.35149C19.7397 5.16148 20.7014 5.16148 22.1536 5.35149C26.6826 5.94075 30.7573 8.65469 33.0527 12.6101C33.6977 13.7205 34.1959 14.9209 34.5319 16.1764C34.725 16.8941 34.2976 17.631 33.578 17.8223C33.4608 17.8531 33.3449 17.8685 33.2291 17.8685Z" fill="#2AA07B"/>
<path fill-rule="evenodd" clip-rule="evenodd" d="M17.7597 39.9996C17.7018 39.9996 17.6425 39.9958 17.5833 39.9881C11.4038 39.1844 5.8448 35.4819 2.71126 30.0823C1.82296 28.5507 1.14192 26.9152 0.687472 25.218C0.230445 23.5157 0 21.7607 0 19.9994C0 18.2393 0.230445 16.4831 0.687472 14.7808C1.14192 13.0849 1.82296 11.448 2.71126 9.91775C5.84351 4.51811 11.4038 0.814363 17.5833 0.0107073C18.3274 -0.0817259 18.9982 0.434359 19.0947 1.16997C19.1913 1.90687 18.6712 2.58086 17.9322 2.67715C12.5792 3.37425 7.76045 6.58373 5.04532 11.2644C4.27546 12.5906 3.68583 14.0079 3.29188 15.4753C2.89665 16.9517 2.69582 18.4742 2.69582 19.9994C2.69582 21.5258 2.89665 23.0484 3.29188 24.5235C3.68583 25.9921 4.27546 27.4094 5.04532 28.7356C7.76045 33.4163 12.5792 36.6258 17.9322 37.3216C18.6712 37.4179 19.1913 38.0932 19.0947 38.8288C19.0059 39.5066 18.4266 39.9996 17.7597 39.9996Z" fill="#DC4B2E"/>
<path fill-rule="evenodd" clip-rule="evenodd" d="M20.2212 34.7875C19.6277 34.7875 19.0136 34.7439 18.2888 34.6489C13.7597 34.0596 9.68381 31.3457 7.38837 27.3903C6.74467 26.2798 6.24645 25.0795 5.90915 23.8239C5.71733 23.1063 6.14474 22.3694 6.86311 22.1781C7.58277 21.9855 8.32174 22.4117 8.51485 23.1294C8.79035 24.1564 9.19717 25.1372 9.72243 26.0436C11.6007 29.28 14.9338 31.501 18.6377 31.9824C19.8491 32.1416 20.5932 32.1403 21.8047 31.9837C25.5085 31.501 28.8416 29.28 30.7199 26.0436C31.2452 25.1372 31.652 24.1564 31.9275 23.1294C32.1206 22.4117 32.8596 21.9855 33.5792 22.1781C34.2976 22.3694 34.725 23.1063 34.5332 23.8239C34.1959 25.0795 33.6977 26.2798 33.054 27.3903C30.7585 31.3457 26.6826 34.0596 22.1536 34.6489C21.43 34.7439 20.816 34.7875 20.2212 34.7875Z" fill="#EDB942"/>
<path fill-rule="evenodd" clip-rule="evenodd" d="M38.7941 38.1385C38.7941 38.2669 38.91 38.3311 39.1443 38.3311H39.1791C39.4134 38.3311 39.5305 38.2669 39.5305 38.1385V34.3732H40.2927C40.4085 34.3732 40.4677 34.2859 40.4677 34.1113V34.006C40.4677 33.8314 40.4085 33.7441 40.2927 33.7441H39.5305V32.9828C39.5305 32.7915 39.5511 32.6503 39.5962 32.5592C39.6387 32.4693 39.6979 32.4102 39.7713 32.3807C39.8446 32.3512 39.9206 32.3371 40.003 32.3371C40.1317 32.3371 40.2167 32.3448 40.2579 32.3589C40.2978 32.373 40.339 32.3807 40.3802 32.3807C40.4201 32.3807 40.4536 32.3512 40.4806 32.2934C40.5064 32.2356 40.527 32.1727 40.5411 32.106C40.5566 32.0379 40.5643 31.993 40.5643 31.9699C40.5643 31.889 40.527 31.83 40.4536 31.7953C40.3815 31.7606 40.2952 31.7363 40.1961 31.726C40.097 31.7131 40.0056 31.708 39.9245 31.708C39.8125 31.708 39.6927 31.7221 39.5653 31.7517C39.4365 31.7799 39.3129 31.8377 39.1971 31.9224C39.0799 32.0058 38.9834 32.1265 38.9074 32.2844C38.8315 32.4423 38.7941 32.6516 38.7941 32.9135V33.7441H38.4427C38.3268 33.7441 38.2676 33.8314 38.2676 34.006V34.1113C38.2676 34.2859 38.3268 34.3732 38.4427 34.3732H38.7941V38.1385ZM41.7024 38.1385C41.7024 38.2669 41.8195 38.3311 42.0538 38.3311H42.0886C42.3229 38.3311 42.4388 38.2669 42.4388 38.1385V34.9406C42.5791 34.7609 42.7104 34.6261 42.8327 34.5388C42.9563 34.4515 43.0928 34.4078 43.2447 34.4078C43.3979 34.4078 43.5009 34.4232 43.5562 34.4566C43.6116 34.4874 43.6682 34.5041 43.7274 34.5041C43.7622 34.5041 43.7931 34.4759 43.8188 34.4207C43.8459 34.3655 43.8665 34.3 43.8806 34.2242C43.8948 34.1485 43.9025 34.0843 43.9025 34.0317C43.9025 33.9149 43.86 33.8301 43.7751 33.7749C43.6914 33.7184 43.5639 33.6915 43.394 33.6915C43.2125 33.6915 43.0361 33.748 42.8636 33.8622C42.6911 33.9752 42.5302 34.1369 42.3782 34.3462C42.3602 34.2705 42.3409 34.1883 42.3216 34.0971C42.2997 34.0073 42.2714 33.9303 42.2328 33.8661C42.1954 33.8019 42.1414 33.7698 42.0706 33.7698C42.0422 33.7698 42.001 33.7736 41.9483 33.7788C41.8955 33.7839 41.8427 33.7942 41.7899 33.8096C41.7384 33.8237 41.6921 33.8442 41.6547 33.8699C41.6174 33.8969 41.5981 33.9303 41.5981 33.9713C41.5981 33.9829 41.6071 34.0304 41.6238 34.1151C41.6419 34.1999 41.6599 34.3205 41.6766 34.4772C41.6946 34.6351 41.7024 34.8328 41.7024 35.0715V38.1385ZM46.6542 37.7371C47.0855 37.7371 47.4035 37.5984 47.6043 37.3224C47.8064 37.0451 47.9069 36.6151 47.9069 36.0335C47.9069 35.4507 47.8064 35.0193 47.6043 34.7394C47.4035 34.4608 47.0855 34.3209 46.6542 34.3209C46.2281 34.3209 45.9153 34.4596 45.7157 34.7356C45.5174 35.0129 45.4183 35.4455 45.4183 36.0335C45.4183 36.6151 45.5174 37.0451 45.7157 37.3224C45.9153 37.5984 46.2281 37.7371 46.6542 37.7371ZM46.68 38.3661C46.0208 38.3661 45.5162 38.1684 45.1686 37.7718C44.821 37.3763 44.6472 36.8025 44.6472 36.0502C44.6472 35.2927 44.8222 34.7112 45.1737 34.3029C45.5239 33.8947 46.026 33.6919 46.68 33.6919C47.3224 33.6919 47.8142 33.8934 48.1566 34.2991C48.4991 34.7035 48.669 35.2876 48.669 36.0502C48.669 36.8076 48.5016 37.3828 48.1656 37.7769C47.8296 38.1697 47.334 38.3661 46.68 38.3661ZM50.1154 38.1385C50.1154 38.2669 50.2313 38.3311 50.4656 38.3311H50.5003C50.7346 38.3311 50.8518 38.2669 50.8518 38.1385V34.9316C50.9509 34.8097 51.0475 34.7095 51.1453 34.6312C51.2406 34.5516 51.3552 34.4823 51.4865 34.4207C51.6178 34.3603 51.762 34.3295 51.9203 34.3295C52.201 34.3295 52.4108 34.4065 52.5512 34.5606C52.6915 34.7147 52.761 34.9201 52.761 35.1768V38.1385C52.761 38.2669 52.8782 38.3311 53.1112 38.3311H53.1472C53.3802 38.3311 53.4974 38.2669 53.4974 38.1385V35.1152C53.4974 35.0632 53.4948 35.0069 53.4909 34.9476C53.5057 34.9293 53.5238 34.9069 53.545 34.8803C53.6004 34.8097 53.6802 34.7326 53.7819 34.6479C53.8849 34.5632 54.0008 34.49 54.1321 34.4258C54.2647 34.3616 54.4089 34.3295 54.5659 34.3295C54.8466 34.3295 55.0564 34.4065 55.1968 34.5606C55.3371 34.7147 55.4079 34.9201 55.4079 35.1768V38.1385C55.4079 38.2669 55.5238 38.3311 55.7581 38.3311H55.7928C56.0271 38.3311 56.143 38.2669 56.143 38.1385V35.1062C56.143 34.8097 56.1005 34.5683 56.0117 34.3822C55.9241 34.1947 55.8096 34.0522 55.6667 33.9534C55.5225 33.8545 55.3731 33.7865 55.2148 33.748C55.0564 33.7107 54.9084 33.6915 54.7681 33.6915C54.4938 33.6915 54.2351 33.7621 53.993 33.9059C53.7497 34.0484 53.5437 34.2178 53.3751 34.4168C53.2927 34.2178 53.1807 34.0676 53.0378 33.9624C52.8949 33.8571 52.743 33.7865 52.5821 33.748C52.4211 33.7107 52.2679 33.6915 52.1212 33.6915C51.8418 33.6915 51.5856 33.7582 51.3552 33.8917C51.1234 34.0265 50.9355 34.178 50.79 34.3462C50.772 34.2705 50.7527 34.1883 50.7333 34.0971C50.7127 34.0073 50.6831 33.9303 50.6458 33.8661C50.6072 33.8019 50.5531 33.7698 50.4836 33.7698C50.454 33.7698 50.4128 33.7736 50.36 33.7788C50.3072 33.7839 50.2557 33.7942 50.2029 33.8096C50.1502 33.8237 50.1051 33.8442 50.0665 33.8699C50.0279 33.8969 50.0098 33.9303 50.0098 33.9713C50.0098 33.9829 50.0188 34.0304 50.0369 34.1151C50.0536 34.1999 50.0716 34.3205 50.0896 34.4772C50.1064 34.6351 50.1154 34.8328 50.1154 35.0715V38.1385ZM53.4909 34.9476C53.4672 34.9768 53.4517 34.9951 53.4446 35.0022L53.4356 34.7044C53.4652 34.7686 53.4832 34.8379 53.4884 34.9098L53.4909 34.9476ZM59.8587 38.3136C59.8355 38.3136 59.8098 38.2893 59.7802 38.2392C59.7506 38.1904 59.7248 38.1301 59.7016 38.0607C59.6772 37.9901 59.6669 37.9259 59.6669 37.8682C59.6669 37.8271 59.6746 37.795 59.6926 37.7719L62.2597 34.3724H60.017C59.8999 34.3724 59.842 34.2851 59.842 34.1105V34.0052C59.842 33.8306 59.8999 33.7433 60.017 33.7433H63.0926C63.1223 33.7433 63.1493 33.7703 63.175 33.8216C63.2021 33.8743 63.224 33.9372 63.242 34.0104C63.2587 34.0835 63.2677 34.1452 63.2677 34.1978C63.2677 34.2337 63.2613 34.262 63.2497 34.2851L60.6916 37.6846H63.1017C63.2175 37.6846 63.2767 37.7719 63.2767 37.9465V38.0517C63.2767 38.2263 63.2175 38.3136 63.1017 38.3136H59.8587ZM67.2198 35.7009H64.9411C64.9707 35.2413 65.0879 34.8959 65.2926 34.6648C65.496 34.435 65.7882 34.3208 66.168 34.3208C66.5182 34.3208 66.7821 34.435 66.9572 34.6648C67.1322 34.8959 67.2198 35.2413 67.2198 35.7009ZM64.6836 37.7986C65.0364 38.1773 65.5745 38.366 66.2993 38.366C66.522 38.366 66.728 38.3468 66.9173 38.3095C67.1065 38.271 67.2739 38.2235 67.4168 38.1645C67.5597 38.1067 67.6717 38.0464 67.7541 37.9822C67.8365 37.918 67.8764 37.8589 67.8764 37.8076C67.8764 37.7716 67.8596 37.719 67.8236 37.6497C67.7888 37.5803 67.7476 37.5149 67.7013 37.4571C67.6549 37.3993 67.6112 37.3698 67.57 37.3698C67.5404 37.3698 67.4734 37.4006 67.3691 37.4622C67.2636 37.5226 67.1219 37.5842 66.943 37.6445C66.7653 37.7062 66.5478 37.737 66.2903 37.737C65.8577 37.737 65.5346 37.624 65.3183 37.3955C65.102 37.1695 64.9759 36.8139 64.9411 36.3299H67.7103C67.7451 36.3299 67.7862 36.3068 67.8326 36.2606C67.8789 36.2144 67.9188 36.163 67.951 36.1065C67.9832 36.0526 67.9987 36.0064 67.9987 35.9717C67.9987 35.4762 67.9317 35.0603 67.7978 34.7226C67.6639 34.385 67.4631 34.1282 67.1979 33.9536C66.9314 33.779 66.5967 33.6917 66.195 33.6917C65.7496 33.6917 65.3762 33.7816 65.0724 33.9626C64.7686 34.1423 64.5394 34.4081 64.3849 34.7573C64.2304 35.1065 64.1519 35.5404 64.1519 36.059C64.1519 36.8396 64.3283 37.4199 64.6836 37.7986ZM69.7521 38.3311C69.5178 38.3311 69.4006 38.2669 69.4006 38.1385V35.0715C69.4006 34.8328 69.3929 34.6351 69.3749 34.4772C69.3582 34.3205 69.3401 34.1999 69.3221 34.1151C69.3054 34.0304 69.2964 33.9829 69.2964 33.9713C69.2964 33.9303 69.3157 33.8969 69.353 33.8699C69.3903 33.8442 69.4367 33.8237 69.4882 33.8096C69.541 33.7942 69.5938 33.7839 69.6465 33.7788C69.6993 33.7736 69.7405 33.7698 69.7688 33.7698C69.8397 33.7698 69.8937 33.8019 69.9311 33.8661C69.9697 33.9303 69.998 34.0073 70.0199 34.0971C70.0392 34.1883 70.0585 34.2705 70.0765 34.3462C70.2284 34.1369 70.3894 33.9752 70.5619 33.8622C70.7344 33.748 70.9108 33.6915 71.0923 33.6915C71.2622 33.6915 71.3897 33.7184 71.4734 33.7749C71.5583 33.8301 71.6008 33.9149 71.6008 34.0317C71.6008 34.0843 71.5931 34.1485 71.5789 34.2242C71.5648 34.3 71.5442 34.3655 71.5171 34.4207C71.4914 34.4759 71.4605 34.5041 71.4257 34.5041C71.3665 34.5041 71.3099 34.4874 71.2545 34.4566C71.1991 34.4232 71.0962 34.4078 70.943 34.4078C70.791 34.4078 70.6546 34.4515 70.531 34.5388C70.4087 34.6261 70.2774 34.7609 70.137 34.9406V38.1385C70.137 38.2669 70.0212 38.3311 69.7869 38.3311H69.7521ZM75.3027 37.3224C75.1019 37.5984 74.7839 37.7371 74.3526 37.7371C73.9265 37.7371 73.6137 37.5984 73.4141 37.3224C73.2159 37.0451 73.1167 36.6151 73.1167 36.0335C73.1167 35.4455 73.2159 35.0129 73.4141 34.7356C73.6137 34.4596 73.9265 34.3209 74.3526 34.3209C74.7839 34.3209 75.1019 34.4608 75.3027 34.7394C75.5049 35.0193 75.6053 35.4507 75.6053 36.0335C75.6053 36.6151 75.5049 37.0451 75.3027 37.3224ZM72.867 37.7718C73.2146 38.1684 73.7192 38.3661 74.3784 38.3661C75.0324 38.3661 75.528 38.1697 75.864 37.7769C76.2001 37.3828 76.3674 36.8076 76.3674 36.0502C76.3674 35.2876 76.1975 34.7035 75.855 34.2991C75.5126 33.8934 75.0208 33.6919 74.3784 33.6919C73.7244 33.6919 73.2223 33.8947 72.8721 34.3029C72.5207 34.7112 72.3456 35.2927 72.3456 36.0502C72.3456 36.8025 72.5194 37.3763 72.867 37.7718ZM81.4591 38.3661C81.3484 38.3661 81.2286 38.3495 81.0999 38.3174C80.9712 38.2866 80.8489 38.2275 80.7317 38.1428C80.6145 38.0593 80.518 37.9361 80.442 37.7769C80.3661 37.6164 80.3287 37.411 80.3287 37.1607V34.3735H79.891C79.7739 34.3735 79.7159 34.285 79.7159 34.1104V34.0051C79.7159 33.8305 79.7739 33.7432 79.891 33.7432H80.3287L80.433 32.8266C80.4459 32.6982 80.5386 32.634 80.7137 32.634H80.8012C80.9763 32.634 81.0651 32.6982 81.0651 32.8266V33.7432H81.8002C81.9174 33.7432 81.9753 33.8305 81.9753 34.0051V34.1104C81.9753 34.285 81.9174 34.3735 81.8002 34.3735H81.0651V37.0901C81.0651 37.352 81.1115 37.5265 81.2055 37.61C81.2982 37.6947 81.4089 37.7371 81.5376 37.7371C81.6664 37.7371 81.7513 37.7294 81.7912 37.7153C81.8324 37.7011 81.8736 37.6934 81.9148 37.6934C81.956 37.6934 81.9895 37.723 82.0152 37.7807C82.041 37.8385 82.0616 37.9014 82.077 37.9682C82.0912 38.0362 82.0976 38.0811 82.0976 38.1043C82.0976 38.18 82.0616 38.2365 81.9895 38.2737C81.9161 38.3122 81.8299 38.3366 81.7307 38.3482C81.6303 38.3597 81.5402 38.3661 81.4591 38.3661ZM86.0453 37.3224C85.8445 37.5984 85.5265 37.7371 85.0952 37.7371C84.6691 37.7371 84.3562 37.5984 84.1567 37.3224C83.9584 37.0451 83.8593 36.6151 83.8593 36.0335C83.8593 35.4455 83.9584 35.0129 84.1567 34.7356C84.3562 34.4596 84.6691 34.3209 85.0952 34.3209C85.5265 34.3209 85.8445 34.4608 86.0453 34.7394C86.2474 35.0193 86.3479 35.4507 86.3479 36.0335C86.3479 36.6151 86.2474 37.0451 86.0453 37.3224ZM83.6096 37.7718C83.9572 38.1684 84.4618 38.3661 85.121 38.3661C85.775 38.3661 86.2706 38.1697 86.6066 37.7769C86.9426 37.3828 87.11 36.8076 87.11 36.0502C87.11 35.2876 86.9401 34.7035 86.5976 34.2991C86.2552 33.8934 85.7634 33.6919 85.121 33.6919C84.467 33.6919 83.9649 33.8947 83.6147 34.3029C83.2632 34.7112 83.0882 35.2927 83.0882 36.0502C83.0882 36.8025 83.262 37.3763 83.6096 37.7718ZM91.2899 38.3311C91.0556 38.3311 90.9398 38.2669 90.9398 38.1385V31.9352C90.9398 31.8069 91.0556 31.7427 91.2899 31.7427H91.3247C91.559 31.7427 91.6761 31.8069 91.6761 31.9352V34.2949C91.8281 34.1434 92.0186 34.0047 92.249 33.8789C92.4795 33.7544 92.7357 33.6915 93.0163 33.6915C93.1567 33.6915 93.3073 33.7107 93.4669 33.748C93.6278 33.7865 93.7798 33.8545 93.9227 33.9534C94.0668 34.0522 94.1827 34.1947 94.2741 34.3822C94.3642 34.5683 94.4093 34.8097 94.4093 35.1062V38.1385C94.4093 38.2669 94.2934 38.3311 94.0591 38.3311H94.0244C93.7901 38.3311 93.6729 38.2669 93.6729 38.1385V35.1768C93.6729 34.9201 93.5995 34.7147 93.4502 34.5606C93.3008 34.4065 93.0781 34.3295 92.7794 34.3295C92.6159 34.3295 92.4666 34.3603 92.3327 34.4207C92.1988 34.4823 92.0817 34.5529 91.9825 34.6351C91.8834 34.7172 91.7804 34.8186 91.6761 34.9406V38.1385C91.6761 38.2669 91.559 38.3311 91.3247 38.3311H91.2899ZM98.8524 35.7009H96.5737C96.6033 35.2413 96.7204 34.8959 96.9251 34.6648C97.1285 34.435 97.4208 34.3208 97.8006 34.3208C98.1507 34.3208 98.4147 34.435 98.5897 34.6648C98.7648 34.8959 98.8524 35.2413 98.8524 35.7009ZM96.3162 37.7986C96.6689 38.1773 97.2071 38.366 97.9319 38.366C98.1546 38.366 98.3606 38.3468 98.5498 38.3095C98.7391 38.271 98.9064 38.2235 99.0493 38.1645C99.1922 38.1067 99.3042 38.0464 99.3866 37.9822C99.469 37.918 99.5089 37.8589 99.5089 37.8076C99.5089 37.7716 99.4922 37.719 99.4562 37.6497C99.4214 37.5803 99.3802 37.5149 99.3339 37.4571C99.2875 37.3993 99.2437 37.3698 99.2025 37.3698C99.1729 37.3698 99.106 37.4006 99.0017 37.4622C98.8961 37.5226 98.7545 37.5842 98.5756 37.6445C98.3979 37.7062 98.1803 37.737 97.9229 37.737C97.4903 37.737 97.1672 37.624 96.9509 37.3955C96.7346 37.1695 96.6084 36.8139 96.5737 36.3299H99.3429C99.3776 36.3299 99.4188 36.3068 99.4652 36.2606C99.5115 36.2144 99.5514 36.163 99.5836 36.1065C99.6158 36.0526 99.6325 36.0064 99.6325 35.9717C99.6325 35.4762 99.5643 35.0603 99.4304 34.7226C99.2965 34.385 99.0957 34.1282 98.8305 33.9536C98.564 33.779 98.2293 33.6917 97.8276 33.6917C97.3822 33.6917 97.0088 33.7816 96.705 33.9626C96.4012 34.1423 96.172 34.4081 96.0175 34.7573C95.863 35.1065 95.7845 35.5404 95.7845 36.059C95.7845 36.8396 95.9609 37.4199 96.3162 37.7986ZM101.384 38.3311C101.15 38.3311 101.033 38.2669 101.033 38.1385V35.0715C101.033 34.8328 101.025 34.6351 101.007 34.4772C100.99 34.3205 100.972 34.1999 100.954 34.1151C100.937 34.0304 100.928 33.9829 100.928 33.9713C100.928 33.9303 100.948 33.8969 100.985 33.8699C101.022 33.8442 101.069 33.8237 101.12 33.8096C101.173 33.7942 101.226 33.7839 101.279 33.7788C101.331 33.7736 101.373 33.7698 101.401 33.7698C101.472 33.7698 101.526 33.8019 101.563 33.8661C101.602 33.9303 101.63 34.0073 101.652 34.0971C101.671 34.1883 101.691 34.2705 101.709 34.3462C101.861 34.1369 102.021 33.9752 102.194 33.8622C102.366 33.748 102.543 33.6915 102.724 33.6915C102.894 33.6915 103.022 33.7184 103.105 33.7749C103.19 33.8301 103.233 33.9149 103.233 34.0317C103.233 34.0843 103.225 34.1485 103.211 34.2242C103.197 34.3 103.176 34.3655 103.149 34.4207C103.123 34.4759 103.093 34.5041 103.058 34.5041C102.999 34.5041 102.942 34.4874 102.887 34.4566C102.831 34.4232 102.728 34.4078 102.575 34.4078C102.423 34.4078 102.287 34.4515 102.163 34.5388C102.041 34.6261 101.909 34.7609 101.769 34.9406V38.1385C101.769 38.2669 101.653 38.3311 101.419 38.3311H101.384ZM106.935 37.3224C106.734 37.5984 106.416 37.7371 105.985 37.7371C105.559 37.7371 105.246 37.5984 105.046 37.3224C104.848 37.0451 104.749 36.6151 104.749 36.0335C104.749 35.4455 104.848 35.0129 105.046 34.7356C105.246 34.4596 105.559 34.3209 105.985 34.3209C106.416 34.3209 106.734 34.4608 106.935 34.7394C107.137 35.0193 107.237 35.4507 107.237 36.0335C107.237 36.6151 107.137 37.0451 106.935 37.3224ZM104.499 37.7718C104.847 38.1684 105.351 38.3661 106.01 38.3661C106.664 38.3661 107.16 38.1697 107.496 37.7769C107.832 37.3828 107.999 36.8076 107.999 36.0502C107.999 35.2876 107.83 34.7035 107.487 34.2991C107.145 33.8934 106.653 33.6919 106.01 33.6919C105.356 33.6919 104.854 33.8947 104.504 34.3029C104.153 34.7112 103.978 35.2927 103.978 36.0502C103.978 36.8025 104.151 37.3763 104.499 37.7718Z" fill="#182036"/>
</svg>
